<svg width="42" height="42" viewBox="0 0 42 42" fill="none" xmlns="http://www.w3.org/2000/svg">
<path d="M10.5 11.375C10.5 7.8502 13.3502 5 16.875 5H19.25C22.7748 5 25.625 7.8502 25.625 11.375V24.5C25.625 25.7426 24.6176 26.75 23.375 26.75H12.75C11.5074 26.75 10.5 25.7426 10.5 24.5V11.375Z" stroke="currentColor" stroke-width="2"/>
<path d="M25.625 11.375C25.625 7.8502 28.4752 5 32 5H32.875C36.3998 5 39.25 7.8502 39.25 11.375V24.5C39.25 25.7426 38.2426 26.75 37 26.75H28" stroke="currentColor" stroke-width="2"/>
<path d="M8.75 18.375C5.2252 18.375 2.375 21.2252 2.375 24.75V31.75C2.375 35.2748 5.2252 38.125 8.75 38.125V38.125C12.2748 38.125 15.125 35.2748 15.125 31.75V24.75" stroke="currentColor" stroke-width="2"/>
<path d="M35 23.625V31.75C35 35.2748 32.1498 38.125 28.625 38.125V38.125C25.1002 38.125 22.25 35.2748 22.25 31.75V24.75" stroke="currentColor" stroke-width="2"/>
</svg> 