<svg width="42" height="42" viewBox="0 0 42 42" fill="none" xmlns="http://www.w3.org/2000/svg">
<path d="M13.125 8.75C13.125 5.6934 15.6934 3.125 18.75 3.125V3.125C21.8066 3.125 24.375 5.6934 24.375 8.75V21.875H13.125V8.75Z" stroke="currentColor" stroke-width="2"/>
<path d="M24.375 8.75C24.375 5.6934 26.9434 3.125 30 3.125V3.125C33.0566 3.125 35.625 5.6934 35.625 8.75V21.875H24.375V8.75Z" stroke="currentColor" stroke-width="2"/>
<path d="M10.5 13.125C7.4434 13.125 4.875 15.6934 4.875 18.75V29.375C4.875 32.4316 7.4434 35 10.5 35V35C13.5566 35 16.125 32.4316 16.125 29.375V18.75" stroke="currentColor" stroke-width="2"/>
<path d="M35 18.75V29.375C35 32.4316 32.4316 35 29.375 35V35C26.3184 35 23.75 32.4316 23.75 29.375V18.75" stroke="currentColor" stroke-width="2"/>
</svg> 