<svg width="42" height="42" viewBox="0 0 42 42" fill="none" xmlns="http://www.w3.org/2000/svg">
<rect x="4" y="14" width="10" height="16" rx="5" stroke="currentColor" stroke-width="2"/>
<rect x="28" y="14" width="10" height="16" rx="5" stroke="currentColor" stroke-width="2"/>
<path d="M14 19C14 13.4772 18.4772 9 24 9H18C12.4772 9 8 13.4772 8 19V25C8 30.5228 12.4772 35 18 35H24C18.4772 35 14 30.5228 14 25V19Z" stroke="currentColor" stroke-width="2"/>
<path d="M28 19C28 13.4772 23.5228 9 18 9H24C29.5228 9 34 13.4772 34 19V25C34 30.5228 29.5228 35 24 35H18C23.5228 35 28 30.5228 28 25V19Z" stroke="currentColor" stroke-width="2"/>
</svg> 