<svg width="42" height="42" viewBox="0 0 42 42" fill="none" xmlns="http://www.w3.org/2000/svg">
<rect width="42" height="42" rx="12" fill="#007AFF" fill-opacity="0.15"/>
<path d="M26.6801 23.81L22.2001 20.45L26.6801 17.09C26.8105 16.9922 26.9163 16.8654 26.9892 16.7196C27.0621 16.5738 27.1001 16.413 27.1001 16.25C27.1001 16.087 27.0621 15.9262 26.9892 15.7804C26.9163 15.6346 26.8105 15.5078 26.6801 15.41L21.0801 11.21C20.9241 11.093 20.7386 11.0218 20.5443 11.0042C20.3501 10.9867 20.1549 11.0236 19.9805 11.1109C19.8061 11.1981 19.6594 11.3321 19.5569 11.498C19.4544 11.6639 19.4001 11.855 19.4001 12.05V18.35L15.4801 15.41C15.2573 15.2429 14.9772 15.1712 14.7016 15.2106C14.4259 15.2499 14.1771 15.3972 14.0101 15.62C13.843 15.8428 13.7712 16.1228 13.8106 16.3985C13.85 16.6742 13.9973 16.9229 14.2201 17.09L18.7001 20.45L14.2201 23.81C14.1097 23.8927 14.0168 23.9964 13.9466 24.115C13.8763 24.2337 13.8301 24.365 13.8106 24.5015C13.7911 24.638 13.7987 24.777 13.8329 24.9106C13.8671 25.0442 13.9273 25.1697 14.0101 25.28C14.0928 25.3903 14.1964 25.4832 14.3151 25.5535C14.4337 25.6238 14.5651 25.6699 14.7016 25.6894C14.8381 25.7089 14.9771 25.7014 15.1106 25.6671C15.2442 25.6329 15.3697 25.5727 15.4801 25.49L19.4001 22.55V28.85C19.4001 29.045 19.4544 29.2361 19.5569 29.402C19.6594 29.5679 19.8061 29.7019 19.9805 29.7891C20.1549 29.8764 20.3501 29.9133 20.5443 29.8958C20.7386 29.8782 20.9241 29.807 21.0801 29.69L26.6801 25.49C26.8105 25.3922 26.9163 25.2654 26.9892 25.1196C27.0621 24.9738 27.1001 24.813 27.1001 24.65C27.1001 24.487 27.0621 24.3262 26.9892 24.1804C26.9163 24.0346 26.8105 23.9078 26.6801 23.81ZM21.5001 14.15L24.3001 16.25L21.5001 18.35V14.15ZM21.5001 26.75V22.55L24.3001 24.65L21.5001 26.75Z" fill="#0754B8"/>
</svg>
