<svg width="21" height="19" viewBox="0 0 21 19" fill="none" xmlns="http://www.w3.org/2000/svg">
<path d="M0.400146 7.03286V15.1514C0.400146 16.8722 1.80015 18.2722 3.52092 18.2722H17.3757C19.0965 18.2722 20.4965 16.8722 20.4965 15.1514V7.03286H0.400146Z" fill="#0754B8"/>
<path d="M20.4965 5.69184V3.21623C20.4965 1.49541 19.0965 0.095459 17.3757 0.095459H3.52092C1.8001 0.095459 0.400146 1.49541 0.400146 3.21623V5.69184H20.4965ZM8.30307 2.44666H12.5936C12.9639 2.44666 13.2641 2.74687 13.2641 3.11718C13.2641 3.48748 12.9639 3.7877 12.5936 3.7877H8.30307C7.93276 3.7877 7.63255 3.48748 7.63255 3.11718C7.63255 2.74687 7.93276 2.44666 8.30307 2.44666Z" fill="#0754B8"/>
</svg>
