<svg width="11" height="18" viewBox="0 0 11 18" fill="none" xmlns="http://www.w3.org/2000/svg">
<path d="M10.5254 9.44922C10.5254 9.57292 10.4993 9.6901 10.4473 9.80078C10.4017 9.90495 10.3333 10.0026 10.2422 10.0938L2.50781 17.6621C2.33203 17.8379 2.11719 17.9258 1.86328 17.9258C1.70052 17.9258 1.55078 17.8867 1.41406 17.8086C1.27734 17.7305 1.16992 17.623 1.0918 17.4863C1.01367 17.3561 0.974609 17.2064 0.974609 17.0371C0.974609 16.7962 1.05924 16.5846 1.22852 16.4023L8.33789 9.44922L1.22852 2.49609C1.05924 2.3138 0.974609 2.10221 0.974609 1.86133C0.974609 1.69206 1.01367 1.54232 1.0918 1.41211C1.16992 1.27539 1.27734 1.16797 1.41406 1.08984C1.55078 1.01172 1.70052 0.972656 1.86328 0.972656C2.11719 0.972656 2.33203 1.05729 2.50781 1.22656L10.2422 8.80469C10.3333 8.89583 10.4017 8.99674 10.4473 9.10742C10.4993 9.21159 10.5254 9.32552 10.5254 9.44922Z" fill="#3C3C43" fill-opacity="0.3"/>
</svg>
