<svg width="35" height="36" viewBox="0 0 35 36" fill="none" xmlns="http://www.w3.org/2000/svg">
<rect y="0.856934" width="34.2857" height="34.2857" rx="17.1429" fill="#007AFF" fill-opacity="0.15"/>
<path d="M24.07 11.1244C23.1728 10.2182 22.1057 9.49783 20.9297 9.0046C19.7538 8.51137 18.4921 8.25494 17.2169 8.25H17.1428C14.557 8.25 12.077 9.27723 10.2485 11.1057C8.42005 12.9342 7.39282 15.4141 7.39282 18V23.25C7.39282 23.8467 7.62988 24.419 8.05183 24.841C8.47379 25.2629 9.04609 25.5 9.64282 25.5H11.1428C11.7396 25.5 12.3119 25.2629 12.7338 24.841C13.1558 24.419 13.3928 23.8467 13.3928 23.25V19.5C13.3928 18.9033 13.1558 18.331 12.7338 17.909C12.3119 17.4871 11.7396 17.25 11.1428 17.25H8.92657C9.07121 15.6862 9.65861 14.196 10.6199 12.9541C11.5812 11.7122 12.8766 10.77 14.3542 10.238C15.8319 9.70603 17.4305 9.60624 18.9628 9.95035C20.4952 10.2945 21.8977 11.0682 23.0059 12.1809C24.3605 13.5425 25.1937 15.3366 25.36 17.25H23.1428C22.5461 17.25 21.9738 17.4871 21.5518 17.909C21.1299 18.331 20.8928 18.9033 20.8928 19.5V23.25C20.8928 23.8467 21.1299 24.419 21.5518 24.841C21.9738 25.2629 22.5461 25.5 23.1428 25.5H25.3928C25.3928 26.0967 25.1558 26.669 24.7338 27.091C24.3119 27.5129 23.7396 27.75 23.1428 27.75H17.8928C17.6939 27.75 17.5031 27.829 17.3625 27.9697C17.2218 28.1103 17.1428 28.3011 17.1428 28.5C17.1428 28.6989 17.2218 28.8897 17.3625 29.0303C17.5031 29.171 17.6939 29.25 17.8928 29.25H23.1428C24.1374 29.25 25.0912 28.8549 25.7945 28.1516C26.4977 27.4484 26.8928 26.4946 26.8928 25.5V18C26.8977 16.7246 26.6509 15.4608 26.1665 14.2809C25.6821 13.1011 24.9697 12.0284 24.07 11.1244ZM11.1428 18.75C11.3417 18.75 11.5325 18.829 11.6732 18.9697C11.8138 19.1103 11.8928 19.3011 11.8928 19.5V23.25C11.8928 23.4489 11.8138 23.6397 11.6732 23.7803C11.5325 23.921 11.3417 24 11.1428 24H9.64282C9.44391 24 9.25314 23.921 9.11249 23.7803C8.97184 23.6397 8.89282 23.4489 8.89282 23.25V18.75H11.1428ZM23.1428 24C22.9439 24 22.7531 23.921 22.6125 23.7803C22.4718 23.6397 22.3928 23.4489 22.3928 23.25V19.5C22.3928 19.3011 22.4718 19.1103 22.6125 18.9697C22.7531 18.829 22.9439 18.75 23.1428 18.75H25.3928V24H23.1428Z" fill="#007AFF"/>
</svg>
