<svg width="23" height="24" viewBox="0 0 23 24" fill="none" xmlns="http://www.w3.org/2000/svg">
<path d="M11.5 23.6309C9.9388 23.6309 8.4707 23.3337 7.0957 22.7393C5.7207 22.1449 4.51042 21.3249 3.46484 20.2793C2.41927 19.2337 1.59928 18.0234 1.00488 16.6484C0.410482 15.2734 0.113281 13.8053 0.113281 12.2441C0.113281 10.6829 0.410482 9.21842 1.00488 7.85059C1.59928 6.47559 2.41927 5.2653 3.46484 4.21973C4.51042 3.16699 5.71712 2.34701 7.08496 1.75977C8.45996 1.16536 9.92806 0.868164 11.4893 0.868164C13.0576 0.868164 14.5293 1.16536 15.9043 1.75977C17.2793 2.34701 18.4896 3.16699 19.5352 4.21973C20.5807 5.2653 21.4007 6.47559 21.9951 7.85059C22.5895 9.21842 22.8867 10.6829 22.8867 12.2441C22.8867 13.8053 22.5895 15.2734 21.9951 16.6484C21.4007 18.0234 20.5807 19.2337 19.5352 20.2793C18.4896 21.3249 17.2793 22.1449 15.9043 22.7393C14.5293 23.3337 13.0612 23.6309 11.5 23.6309ZM8.05176 16.9385C8.43132 16.9385 8.74642 16.8132 8.99707 16.5625L11.4893 14.0596L14.0029 16.5625C14.2607 16.8132 14.5723 16.9385 14.9375 16.9385C15.2956 16.9385 15.5964 16.8167 15.8398 16.5732C16.0833 16.3298 16.2051 16.029 16.2051 15.6709C16.2051 15.3343 16.0762 15.0407 15.8184 14.79L13.3047 12.2549L15.8291 9.71973C16.0798 9.46908 16.2051 9.17546 16.2051 8.83887C16.2051 8.48796 16.0833 8.19076 15.8398 7.94727C15.6035 7.70378 15.3063 7.58203 14.9482 7.58203C14.583 7.58203 14.2751 7.70736 14.0244 7.95801L11.4893 10.4717L8.98633 7.95801C8.74284 7.71452 8.43132 7.59277 8.05176 7.59277C7.70085 7.59277 7.40365 7.71452 7.16016 7.95801C6.91667 8.19434 6.79492 8.49154 6.79492 8.84961C6.79492 9.1862 6.92025 9.47982 7.1709 9.73047L9.70605 12.2549L7.1709 14.79C6.92025 15.0407 6.79492 15.3343 6.79492 15.6709C6.79492 16.029 6.91667 16.3298 7.16016 16.5732C7.40365 16.8167 7.70085 16.9385 8.05176 16.9385Z" fill="#3C3C43" fill-opacity="0.6"/>
</svg>
