<svg width="22" height="19" viewBox="0 0 22 19" fill="none" xmlns="http://www.w3.org/2000/svg">
<path d="M21.269 6.43478C21.269 12.9973 11.5387 18.3092 11.1244 18.5285C11.0151 18.5873 10.8931 18.618 10.769 18.618C10.645 18.618 10.5229 18.5873 10.4137 18.5285C9.99936 18.3092 0.269043 12.9973 0.269043 6.43478C0.27078 4.89375 0.883724 3.41632 1.9734 2.32664C3.06308 1.23697 4.54051 0.624021 6.08154 0.622284C8.01748 0.622284 9.71248 1.45478 10.769 2.86197C11.8256 1.45478 13.5206 0.622284 15.4565 0.622284C16.9976 0.624021 18.475 1.23697 19.5647 2.32664C20.6544 3.41632 21.2673 4.89375 21.269 6.43478Z" fill="#999999"/>
</svg>
