<svg width="50" height="50" viewBox="0 0 50 50" fill="none" xmlns="http://www.w3.org/2000/svg">
<rect width="50" height="50" rx="25" fill="#787880" fill-opacity="0.32"/>
<path d="M25 35.9541C24.821 35.9541 24.6061 35.8896 24.3555 35.7607C24.1048 35.6318 23.8577 35.485 23.6143 35.3203C21.6449 34.0312 19.9225 32.6742 18.4473 31.249C16.9792 29.8167 15.8405 28.3451 15.0312 26.834C14.222 25.3158 13.8174 23.7904 13.8174 22.2578C13.8174 21.1979 13.9857 20.2383 14.3223 19.3789C14.666 18.5124 15.1351 17.7676 15.7295 17.1445C16.3239 16.5215 17.0078 16.0417 17.7812 15.7051C18.5618 15.3685 19.3926 15.2002 20.2734 15.2002C21.3691 15.2002 22.3109 15.4759 23.0986 16.0273C23.8936 16.5716 24.5273 17.2806 25 18.1543C25.4727 17.2806 26.1029 16.5716 26.8906 16.0273C27.6855 15.4759 28.6309 15.2002 29.7266 15.2002C30.6003 15.2002 31.4274 15.3685 32.208 15.7051C32.9886 16.0417 33.6725 16.5215 34.2598 17.1445C34.8542 17.7676 35.3197 18.5124 35.6562 19.3789C36 20.2383 36.1719 21.1979 36.1719 22.2578C36.1719 23.7904 35.7673 25.3158 34.958 26.834C34.1488 28.3451 33.0101 29.8167 31.542 31.249C30.0739 32.6742 28.3551 34.0312 26.3857 35.3203C26.1423 35.485 25.8952 35.6318 25.6445 35.7607C25.3939 35.8896 25.179 35.9541 25 35.9541Z" fill="#F95959"/>
</svg>
