<svg width="50" height="50" viewBox="0 0 50 50" fill="none" xmlns="http://www.w3.org/2000/svg">
<rect width="50" height="50" rx="25" fill="#787880" fill-opacity="0.32"/>
<path d="M13.8174 22.2578C13.8174 21.1979 13.9857 20.2383 14.3223 19.3789C14.666 18.5124 15.1351 17.7676 15.7295 17.1445C16.3311 16.5215 17.0257 16.0417 17.8135 15.7051C18.6012 15.3685 19.4391 15.2002 20.3271 15.2002C21.3942 15.2002 22.3216 15.4115 23.1094 15.834C23.8971 16.2565 24.5273 16.8044 25 17.4775C25.4727 16.8044 26.0993 16.2565 26.8799 15.834C27.6676 15.4115 28.5951 15.2002 29.6621 15.2002C30.5573 15.2002 31.3988 15.3685 32.1865 15.7051C32.9743 16.0417 33.6654 16.5215 34.2598 17.1445C34.8542 17.7676 35.3197 18.5124 35.6562 19.3789C36 20.2383 36.1719 21.1979 36.1719 22.2578C36.1719 23.7904 35.7673 25.3158 34.958 26.834C34.1488 28.3451 33.0101 29.8167 31.542 31.249C30.0739 32.6742 28.3551 34.0312 26.3857 35.3203C26.1423 35.485 25.8952 35.6318 25.6445 35.7607C25.3939 35.8896 25.179 35.9541 25 35.9541C24.821 35.9541 24.6061 35.8896 24.3555 35.7607C24.1048 35.6318 23.8577 35.485 23.6143 35.3203C21.6449 34.0312 19.9225 32.6742 18.4473 31.249C16.9792 29.8167 15.8405 28.3451 15.0312 26.834C14.222 25.3158 13.8174 23.7904 13.8174 22.2578ZM16.75 22.2256C16.75 23.0921 16.9541 23.9837 17.3623 24.9004C17.7705 25.8171 18.3398 26.7337 19.0703 27.6504C19.8079 28.5599 20.6637 29.4443 21.6377 30.3037C22.6188 31.1631 23.6823 31.9723 24.8281 32.7314C24.9069 32.7959 24.9642 32.8281 25 32.8281C25.0286 32.8281 25.0859 32.7959 25.1719 32.7314C26.3105 31.9723 27.3704 31.1631 28.3516 30.3037C29.3327 29.4443 30.1885 28.5599 30.9189 27.6504C31.6494 26.7337 32.2188 25.8171 32.627 24.9004C33.0352 23.9837 33.2393 23.0921 33.2393 22.2256C33.2393 21.3949 33.0674 20.6644 32.7236 20.0342C32.3799 19.404 31.9108 18.9134 31.3164 18.5625C30.722 18.2116 30.0524 18.0361 29.3076 18.0361C28.7061 18.0361 28.1904 18.1364 27.7607 18.3369C27.3382 18.5303 26.973 18.7809 26.665 19.0889C26.3643 19.3896 26.0993 19.694 25.8701 20.002C25.7054 20.2168 25.5586 20.3743 25.4297 20.4746C25.3079 20.5749 25.1647 20.625 25 20.625C24.8353 20.625 24.6849 20.5785 24.5488 20.4854C24.4199 20.3851 24.2767 20.224 24.1191 20.002C23.9043 19.694 23.6429 19.3896 23.335 19.0889C23.0342 18.7809 22.6654 18.5303 22.2285 18.3369C21.7988 18.1364 21.2868 18.0361 20.6924 18.0361C19.9404 18.0361 19.2673 18.2116 18.6729 18.5625C18.0785 18.9134 17.6094 19.404 17.2656 20.0342C16.9219 20.6644 16.75 21.3949 16.75 22.2256Z" fill="#EBEBF5" fill-opacity="0.6"/>
</svg>
