<svg width="22" height="19" viewBox="0 0 22 19" fill="none" xmlns="http://www.w3.org/2000/svg">
<path d="M21.269 6.43457C21.269 12.9971 11.5387 18.3089 11.1244 18.5283C11.0151 18.5871 10.8931 18.6178 10.769 18.6178C10.645 18.6178 10.5229 18.5871 10.4137 18.5283C9.99936 18.3089 0.269043 12.9971 0.269043 6.43457C0.27078 4.89353 0.883724 3.41611 1.9734 2.32643C3.06308 1.23675 4.54051 0.623807 6.08154 0.62207C8.01748 0.62207 9.71248 1.45457 10.769 2.86176C11.8256 1.45457 13.5206 0.62207 15.4565 0.62207C16.9976 0.623807 18.475 1.23675 19.5647 2.32643C20.6544 3.41611 21.2673 4.89353 21.269 6.43457Z" fill="#0754B8"/>
</svg>
