<svg width="15" height="21" viewBox="0 0 15 21" fill="none" xmlns="http://www.w3.org/2000/svg">
<path d="M14.3 14.225L9.5 10.625L14.3 7.025C14.4397 6.92021 14.5531 6.78433 14.6312 6.62812C14.7093 6.4719 14.75 6.29965 14.75 6.125C14.75 5.95035 14.7093 5.7781 14.6312 5.62189C14.5531 5.46567 14.4397 5.32979 14.3 5.225L8.3 0.725C8.13286 0.599645 7.93412 0.523309 7.72604 0.504546C7.51795 0.485784 7.30876 0.525335 7.12189 0.61877C6.93502 0.712204 6.77786 0.85583 6.66802 1.03355C6.55818 1.21128 6.5 1.41607 6.5 1.625V8.375L2.3 5.225C2.06131 5.04598 1.76128 4.96911 1.46591 5.01131C1.17054 5.0535 0.904026 5.21131 0.725005 5.45C0.545984 5.6887 0.469116 5.98873 0.511311 6.2841C0.553507 6.57947 0.71131 6.84598 0.950005 7.025L5.75 10.625L0.950005 14.225C0.831815 14.3136 0.732242 14.4247 0.656971 14.5518C0.5817 14.6789 0.532205 14.8196 0.511311 14.9659C0.490418 15.1122 0.498536 15.2611 0.535202 15.4042C0.571867 15.5473 0.636363 15.6818 0.725005 15.8C0.813647 15.9182 0.9247 16.0178 1.05182 16.093C1.17895 16.1683 1.31965 16.2178 1.46591 16.2387C1.61216 16.2596 1.76109 16.2515 1.90421 16.2148C2.04732 16.1781 2.18181 16.1136 2.3 16.025L6.5 12.875V19.625C6.5 19.8339 6.55818 20.0387 6.66802 20.2164C6.77786 20.3942 6.93502 20.5378 7.12189 20.6312C7.30876 20.7247 7.51795 20.7642 7.72604 20.7455C7.93412 20.7267 8.13286 20.6504 8.3 20.525L14.3 16.025C14.4397 15.9202 14.5531 15.7843 14.6312 15.6281C14.7093 15.4719 14.75 15.2997 14.75 15.125C14.75 14.9503 14.7093 14.7781 14.6312 14.6219C14.5531 14.4657 14.4397 14.3298 14.3 14.225ZM8.75 3.875L11.75 6.125L8.75 8.375V3.875ZM8.75 17.375V12.875L11.75 15.125L8.75 17.375Z" fill="#999999"/>
</svg>
