<svg width="19" height="27" viewBox="0 0 19 27" fill="none" xmlns="http://www.w3.org/2000/svg">
<path d="M18.4 18.3L12 13.5L18.4 8.7C18.5863 8.56028 18.7375 8.3791 18.8416 8.17082C18.9458 7.96254 19 7.73287 19 7.5C19 7.26713 18.9458 7.03746 18.8416 6.82918C18.7375 6.6209 18.5863 6.43972 18.4 6.3L10.4 0.300001C10.1772 0.13286 9.91216 0.0310787 9.63471 0.00606174C9.35727 -0.0189552 9.07834 0.0337806 8.82919 0.15836C8.58003 0.282939 8.37048 0.47444 8.22403 0.711404C8.07758 0.948368 8.00001 1.22143 8.00001 1.5V10.5L2.40001 6.3C2.08175 6.06131 1.6817 5.95882 1.28787 6.01508C0.894048 6.07134 0.538701 6.28174 0.300006 6.6C0.0613115 6.91826 -0.041179 7.31831 0.0150819 7.71213C0.0713428 8.10596 0.281746 8.46131 0.600006 8.7L7.00001 13.5L0.600006 18.3C0.44242 18.4182 0.309656 18.5663 0.209294 18.7358C0.108933 18.9053 0.0429394 19.0929 0.0150819 19.2879C-0.0127757 19.4829 -0.00195184 19.6814 0.0469355 19.8723C0.0958229 20.0631 0.181817 20.2424 0.300006 20.4C0.418196 20.5576 0.566267 20.6904 0.735766 20.7907C0.905265 20.8911 1.09287 20.9571 1.28787 20.9849C1.48288 21.0128 1.68146 21.002 1.87228 20.9531C2.0631 20.9042 2.24242 20.8182 2.40001 20.7L8.00001 16.5V25.5C8.00001 25.7786 8.07758 26.0516 8.22403 26.2886C8.37048 26.5256 8.58003 26.7171 8.82919 26.8416C9.07834 26.9662 9.35727 27.019 9.63471 26.9939C9.91216 26.9689 10.1772 26.8671 10.4 26.7L18.4 20.7C18.5863 20.5603 18.7375 20.3791 18.8416 20.1708C18.9458 19.9625 19 19.7329 19 19.5C19 19.2671 18.9458 19.0375 18.8416 18.8292C18.7375 18.6209 18.5863 18.4397 18.4 18.3ZM11 4.5L15 7.5L11 10.5V4.5ZM11 22.5V16.5L15 19.5L11 22.5Z" fill="#0754B8"/>
</svg>
