<svg width="26" height="23" viewBox="0 0 26 23" fill="none" xmlns="http://www.w3.org/2000/svg">
<path d="M25.5 19C25.4997 19.8405 25.197 20.6528 24.6471 21.2885C24.0973 21.9242 23.337 22.3408 22.5053 22.4622C21.6736 22.5835 20.826 22.4015 20.1175 21.9494C19.4089 21.4973 18.8867 20.8054 18.6462 20H6C4.4087 20 2.88258 19.3679 1.75736 18.2426C0.632141 17.1174 0 15.5913 0 14C0 12.4087 0.632141 10.8826 1.75736 9.75736C2.88258 8.63214 4.4087 8 6 8H18C18.7956 8 19.5587 7.68393 20.1213 7.12132C20.6839 6.55871 21 5.79565 21 5C21 4.20435 20.6839 3.44129 20.1213 2.87868C19.5587 2.31607 18.7956 2 18 2H6C5.73478 2 5.48043 1.89464 5.29289 1.70711C5.10536 1.51957 5 1.26522 5 1C5 0.734784 5.10536 0.48043 5.29289 0.292893C5.48043 0.105357 5.73478 0 6 0H18C19.3261 0 20.5979 0.526784 21.5355 1.46447C22.4732 2.40215 23 3.67392 23 5C23 6.32608 22.4732 7.59785 21.5355 8.53553C20.5979 9.47322 19.3261 10 18 10H6C4.93913 10 3.92172 10.4214 3.17157 11.1716C2.42143 11.9217 2 12.9391 2 14C2 15.0609 2.42143 16.0783 3.17157 16.8284C3.92172 17.5786 4.93913 18 6 18H18.6462C18.8867 17.1946 19.4089 16.5027 20.1175 16.0506C20.826 15.5985 21.6736 15.4165 22.5053 15.5379C23.337 15.6592 24.0973 16.0758 24.6471 16.7115C25.197 17.3472 25.4997 18.1595 25.5 19Z" fill="#0754B8"/>
</svg>
