<svg width="19" height="32" viewBox="0 0 19 32" fill="none" xmlns="http://www.w3.org/2000/svg">
<path d="M5 1.5C5 1.10218 5.15804 0.720644 5.43934 0.43934C5.72064 0.158035 6.10218 0 6.5 0L12.5 0C12.8978 0 13.2794 0.158035 13.5607 0.43934C13.842 0.720644 14 1.10218 14 1.5C14 1.89782 13.842 2.27936 13.5607 2.56066C13.2794 2.84196 12.8978 3 12.5 3H6.5C6.10218 3 5.72064 2.84196 5.43934 2.56066C5.15804 2.27936 5 1.89782 5 1.5ZM19 7.5V28.5C19 29.4283 18.6313 30.3185 17.9749 30.9749C17.3185 31.6313 16.4283 32 15.5 32H3.5C2.57174 32 1.6815 31.6313 1.02513 30.9749C0.368749 30.3185 0 29.4283 0 28.5V7.5C0 6.57174 0.368749 5.6815 1.02513 5.02513C1.6815 4.36875 2.57174 4 3.5 4H15.5C16.4283 4 17.3185 4.36875 17.9749 5.02513C18.6313 5.6815 19 6.57174 19 7.5ZM16 7.5C16 7.36739 15.9473 7.24021 15.8536 7.14645C15.7598 7.05268 15.6326 7 15.5 7H3.5C3.36739 7 3.24021 7.05268 3.14645 7.14645C3.05268 7.24021 3 7.36739 3 7.5V28.5C3 28.6326 3.05268 28.7598 3.14645 28.8536C3.24021 28.9473 3.36739 29 3.5 29H15.5C15.6326 29 15.7598 28.9473 15.8536 28.8536C15.9473 28.7598 16 28.6326 16 28.5V7.5ZM13 9H6C5.60218 9 5.22064 9.15804 4.93934 9.43934C4.65804 9.72064 4.5 10.1022 4.5 10.5C4.5 10.8978 4.65804 11.2794 4.93934 11.5607C5.22064 11.842 5.60218 12 6 12H13C13.3978 12 13.7794 11.842 14.0607 11.5607C14.342 11.2794 14.5 10.8978 14.5 10.5C14.5 10.1022 14.342 9.72064 14.0607 9.43934C13.7794 9.15804 13.3978 9 13 9ZM13 14H6C5.60218 14 5.22064 14.158 4.93934 14.4393C4.65804 14.7206 4.5 15.1022 4.5 15.5C4.5 15.8978 4.65804 16.2794 4.93934 16.5607C5.22064 16.842 5.60218 17 6 17H13C13.3978 17 13.7794 16.842 14.0607 16.5607C14.342 16.2794 14.5 15.8978 14.5 15.5C14.5 15.1022 14.342 14.7206 14.0607 14.4393C13.7794 14.158 13.3978 14 13 14ZM13 19H6C5.60218 19 5.22064 19.158 4.93934 19.4393C4.65804 19.7206 4.5 20.1022 4.5 20.5C4.5 20.8978 4.65804 21.2794 4.93934 21.5607C5.22064 21.842 5.60218 22 6 22H13C13.3978 22 13.7794 21.842 14.0607 21.5607C14.342 21.2794 14.5 20.8978 14.5 20.5C14.5 20.1022 14.342 19.7206 14.0607 19.4393C13.7794 19.158 13.3978 19 13 19ZM13 24H6C5.60218 24 5.22064 24.158 4.93934 24.4393C4.65804 24.7206 4.5 25.1022 4.5 25.5C4.5 25.8978 4.65804 26.2794 4.93934 26.5607C5.22064 26.842 5.60218 27 6 27H13C13.3978 27 13.7794 26.842 14.0607 26.5607C14.342 26.2794 14.5 25.8978 14.5 25.5C14.5 25.1022 14.342 24.7206 14.0607 24.4393C13.7794 24.158 13.3978 24 13 24Z" fill="#0754B8"/>
</svg>
