<svg width="31" height="23" viewBox="0 0 31 23" fill="none" xmlns="http://www.w3.org/2000/svg">
<path d="M15.5051 5.80002C14.4173 5.80002 13.3539 6.12259 12.4495 6.72694C11.545 7.33129 10.84 8.19027 10.4238 9.19527C10.0075 10.2003 9.89856 11.3061 10.1108 12.373C10.323 13.4399 10.8468 14.4199 11.616 15.1891C12.3852 15.9583 13.3652 16.4821 14.4321 16.6943C15.499 16.9066 16.6049 16.7976 17.6099 16.3814C18.6148 15.9651 19.4738 15.2601 20.0782 14.3557C20.6825 13.4512 21.0051 12.3878 21.0051 11.3C21.0034 9.84184 20.4234 8.44386 19.3924 7.41276C18.3613 6.38167 16.9633 5.80168 15.5051 5.80002ZM15.5051 13.8C15.0106 13.8 14.5273 13.6534 14.1162 13.3787C13.705 13.104 13.3846 12.7135 13.1954 12.2567C13.0062 11.7999 12.9567 11.2973 13.0531 10.8123C13.1496 10.3273 13.3877 9.88189 13.7373 9.53226C14.087 9.18263 14.5324 8.94452 15.0174 8.84806C15.5023 8.7516 16.005 8.80111 16.4618 8.99033C16.9186 9.17955 17.3091 9.49998 17.5838 9.9111C17.8585 10.3222 18.0051 10.8056 18.0051 11.3C18.0051 11.9631 17.7417 12.599 17.2729 13.0678C16.804 13.5366 16.1681 13.8 15.5051 13.8ZM25.1788 15.3875C24.7279 16.4536 24.1036 17.4377 23.3313 18.3C23.0661 18.5966 22.694 18.7756 22.2967 18.7978C21.8995 18.8199 21.5098 18.6834 21.2132 18.4181C20.9167 18.1529 20.7376 17.7808 20.7155 17.3836C20.6933 16.9863 20.8299 16.5966 21.0951 16.3C22.327 14.926 23.0083 13.1455 23.0083 11.3C23.0083 9.45457 22.327 7.67408 21.0951 6.30002C20.8299 6.00348 20.6933 5.61372 20.7155 5.2165C20.7376 4.81927 20.9167 4.44712 21.2132 4.1819C21.5098 3.91668 21.8995 3.78013 22.2967 3.80228C22.694 3.82444 23.0661 4.00348 23.3313 4.30002C24.6574 5.78362 25.535 7.61321 25.8621 9.576C26.1891 11.5388 25.9522 13.5541 25.1788 15.3875ZM9.91509 16.3C10.1803 16.5966 10.3169 16.9863 10.2947 17.3836C10.2726 17.7808 10.0935 18.1529 9.79697 18.4181C9.50042 18.6834 9.11067 18.8199 8.71344 18.7978C8.31622 18.7756 7.94406 18.5966 7.67884 18.3C5.95546 16.3757 5.00252 13.8833 5.00252 11.3C5.00252 8.71679 5.95546 6.22435 7.67884 4.30002C7.94406 4.00348 8.31622 3.82444 8.71344 3.80228C9.11067 3.78013 9.50042 3.91668 9.79697 4.1819C10.0935 4.44712 10.2726 4.81927 10.2947 5.2165C10.3169 5.61372 10.1803 6.00348 9.91509 6.30002C8.68315 7.67408 8.00184 9.45457 8.00184 11.3C8.00184 13.1455 8.68315 14.926 9.91509 16.3ZM31.0051 11.3C31.0099 15.357 29.4192 19.2532 26.5763 22.1475C26.4405 22.296 26.2761 22.4156 26.0931 22.4992C25.9101 22.5828 25.7121 22.6288 25.5109 22.6343C25.3098 22.6398 25.1096 22.6048 24.9222 22.5313C24.7349 22.4579 24.5642 22.3475 24.4204 22.2067C24.2767 22.0659 24.1627 21.8977 24.0852 21.7119C24.0078 21.5262 23.9686 21.3267 23.9698 21.1255C23.9711 20.9243 24.0128 20.7254 24.0925 20.5406C24.1722 20.3558 24.2883 20.189 24.4338 20.05C26.7277 17.7153 28.0131 14.5731 28.0131 11.3C28.0131 8.02695 26.7277 4.88477 24.4338 2.55003C24.1554 2.26591 24.0012 1.88281 24.0051 1.485C24.0091 1.08719 24.171 0.707253 24.4551 0.428775C24.7392 0.150298 25.1223 -0.00390978 25.5201 7.53622e-05C25.9179 0.0040605 26.2979 0.165912 26.5763 0.450026C29.4198 3.34497 31.0106 7.24217 31.0051 11.3ZM6.57634 20.05C6.85482 20.3341 7.00903 20.7172 7.00504 21.115C7.00106 21.5129 6.83921 21.8928 6.55509 22.1713C6.27098 22.4498 5.88788 22.604 5.49007 22.6C5.09226 22.596 4.71232 22.4341 4.43384 22.15C1.59206 19.2546 0 15.3595 0 11.3025C0 7.2455 1.59206 3.35049 4.43384 0.455026C4.71617 0.192712 5.08863 0.0491255 5.47398 0.0540433C5.85933 0.0589611 6.228 0.212005 6.50354 0.481439C6.77908 0.750872 6.94035 1.11602 6.95391 1.50116C6.96746 1.8863 6.83226 2.26189 6.57634 2.55003C4.28244 4.88477 2.99711 8.02695 2.99711 11.3C2.99711 14.5731 4.28244 17.7153 6.57634 20.05Z" fill="#0754B8"/>
</svg>
