<svg width="14" height="15" viewBox="0 0 14 15" fill="none" xmlns="http://www.w3.org/2000/svg">
<path d="M7 14.0503C6.09017 14.0503 5.23535 13.8768 4.43555 13.5298C3.63574 13.187 2.92904 12.7109 2.31543 12.1016C1.70605 11.4922 1.22786 10.7876 0.880859 9.98779C0.538086 9.18376 0.366699 8.32682 0.366699 7.41699C0.366699 6.51139 0.538086 5.65869 0.880859 4.85889C1.22786 4.05485 1.70605 3.34814 2.31543 2.73877C2.9248 2.12939 3.62939 1.6512 4.4292 1.3042C5.23324 0.957194 6.08805 0.783691 6.99365 0.783691C7.90348 0.783691 8.7583 0.957194 9.55811 1.3042C10.3621 1.6512 11.0688 2.12939 11.6782 2.73877C12.2918 3.34814 12.77 4.05485 13.1128 4.85889C13.4598 5.65869 13.6333 6.51139 13.6333 7.41699C13.6333 8.32682 13.4598 9.18376 13.1128 9.98779C12.77 10.7876 12.2918 11.4922 11.6782 12.1016C11.0688 12.7109 10.3643 13.187 9.56445 13.5298C8.76465 13.8768 7.90983 14.0503 7 14.0503ZM5.81299 11.0034H8.49805C8.65885 11.0034 8.79427 10.9526 8.9043 10.8511C9.01855 10.7453 9.07568 10.6099 9.07568 10.4448C9.07568 10.2882 9.01855 10.1571 8.9043 10.0513C8.79427 9.94124 8.65885 9.88623 8.49805 9.88623H7.83789V6.95996C7.83789 6.74414 7.78499 6.57064 7.6792 6.43945C7.5734 6.30404 7.41683 6.23633 7.20947 6.23633H5.93359C5.77279 6.23633 5.63525 6.29134 5.521 6.40137C5.41097 6.51139 5.35596 6.64258 5.35596 6.79492C5.35596 6.95996 5.41097 7.09538 5.521 7.20117C5.63525 7.30273 5.77279 7.35352 5.93359 7.35352H6.57471V9.88623H5.81299C5.65218 9.88623 5.51465 9.94124 5.40039 10.0513C5.29036 10.1571 5.23535 10.2882 5.23535 10.4448C5.23535 10.6099 5.29036 10.7453 5.40039 10.8511C5.51465 10.9526 5.65218 11.0034 5.81299 11.0034ZM6.97461 5.27148C7.23698 5.27148 7.45915 5.17839 7.64111 4.99219C7.82308 4.80599 7.91406 4.58382 7.91406 4.32568C7.91406 4.05908 7.82308 3.8348 7.64111 3.65283C7.45915 3.46663 7.23698 3.37354 6.97461 3.37354C6.71647 3.37354 6.4943 3.46663 6.30811 3.65283C6.12191 3.8348 6.02881 4.05908 6.02881 4.32568C6.02881 4.58382 6.12191 4.80599 6.30811 4.99219C6.4943 5.17839 6.71647 5.27148 6.97461 5.27148Z" fill="#3C3C43" fill-opacity="0.6"/>
</svg>
