<svg width="25" height="24" viewBox="0 0 25 24" fill="none" xmlns="http://www.w3.org/2000/svg">
<g clip-path="url(#clip0_2004_1622)">
<path d="M3.80417 16.32L0.972168 23.4L6.10817 20.832L6.87613 16.152C6.54011 15.7441 6.22817 15.312 5.91613 14.9041L3.80417 16.32Z" fill="#0754B8"/>
<path d="M20.796 16.32L18.636 14.88C18.3239 15.288 18.012 15.72 17.7 16.128L18.492 20.832L23.628 23.4L20.796 16.32Z" fill="#0754B8"/>
<path d="M13.86 20.28C13.4521 20.712 12.9 20.952 12.3 20.952C11.7 20.952 11.148 20.712 10.74 20.28C10.3321 19.8479 9.27604 18.816 8.07602 17.376L7.5 21L12.276 23.4L17.052 21L16.476 17.376C15.2279 18.936 14.1 20.016 13.86 20.28Z" fill="#0754B8"/>
<path d="M12.3001 19.176C12.3001 19.176 17.2921 13.824 18.7321 10.776C19.1641 9.83996 19.4281 8.80801 19.4281 7.72798C19.428 3.79198 16.2361 0.599976 12.3001 0.599976C8.36412 0.599976 5.17212 3.79198 5.17212 7.72798C5.17212 8.83195 5.41212 9.86398 5.86814 10.776C6.9001 13.368 12.3001 19.176 12.3001 19.176ZM12.3001 4.46398C14.1001 4.46398 15.5641 5.92796 15.5641 7.72798C15.5641 9.528 14.1001 10.992 12.3001 10.992C10.5001 10.992 9.0361 9.528 9.0361 7.72798C9.0361 5.92796 10.5001 4.46398 12.3001 4.46398Z" fill="#0754B8"/>
</g>
<defs>
<clipPath id="clip0_2004_1622">
<rect width="24" height="24" fill="white" transform="translate(0.300049)"/>
</clipPath>
</defs>
</svg>
