<svg width="35" height="35" viewBox="0 0 35 35" fill="none" xmlns="http://www.w3.org/2000/svg">
<rect y="0.428711" width="34.2857" height="34.2857" rx="17.1429" fill="#007AFF" fill-opacity="0.15"/>
<path d="M25.1734 13.2912L19.9234 8.04115C19.8537 7.97153 19.771 7.91632 19.68 7.87868C19.5889 7.84103 19.4913 7.8217 19.3928 7.82178H10.3928C9.995 7.82178 9.61347 7.97981 9.33216 8.26112C9.05086 8.54242 8.89282 8.92395 8.89282 9.32178V25.8218C8.89282 26.2196 9.05086 26.6011 9.33216 26.8824C9.61347 27.1637 9.995 27.3218 10.3928 27.3218H23.8928C24.2906 27.3218 24.6722 27.1637 24.9535 26.8824C25.2348 26.6011 25.3928 26.2196 25.3928 25.8218V13.8218C25.3929 13.7233 25.3736 13.6257 25.3359 13.5346C25.2983 13.4436 25.2431 13.3609 25.1734 13.2912ZM20.1428 10.3821L22.8325 13.0718H20.1428V10.3821ZM23.8928 25.8218H10.3928V9.32178H18.6428V13.8218C18.6428 14.0207 18.7218 14.2115 18.8625 14.3521C19.0031 14.4928 19.1939 14.5718 19.3928 14.5718H23.8928V25.8218Z" fill="#007AFF"/>
</svg>
