<svg width="24" height="24" viewBox="0 0 24 24" fill="none" xmlns="http://www.w3.org/2000/svg">
<rect x="0.5" y="0.5" width="23" height="23" rx="11.5" stroke="#0754B8"/>
<path d="M6.82398 15.0756C6.82398 14.566 7.23708 14.1529 7.74665 14.1529H16.2045C16.7141 14.1529 17.1271 14.566 17.1271 15.0756V16.7671C17.1271 17.2767 16.7141 17.6898 16.2045 17.6898H7.74665C7.23708 17.6898 6.82398 17.2767 6.82398 16.7671V15.0756Z" fill="#0754B8"/>
<path d="M16.8696 14.6021H7.13024C6.98144 14.6021 6.84243 14.5286 6.75865 14.4056C5.47365 12.5212 5.37507 8.89638 5.36761 8.35828C5.36715 8.33719 5.36692 8.31587 5.36692 8.29466C5.36692 8.04659 5.5678 7.84535 5.81587 7.84489C6.06348 7.84489 6.26565 8.04519 6.26658 8.29291C6.26658 8.29594 6.26669 8.32251 6.26774 8.36958C6.30736 9.64934 7.36083 10.6781 8.65003 10.6781C9.96427 10.6781 11.0335 9.60891 11.0335 8.29466C11.0335 8.04624 11.2349 7.84489 11.4832 7.84489H12.5164C12.7649 7.84489 12.9662 8.04624 12.9662 8.29466C12.9662 9.60891 14.0355 10.6781 15.3498 10.6781C16.6401 10.6781 17.6943 9.64748 17.7322 8.36609C17.733 8.32111 17.7332 8.29594 17.7332 8.29303C17.7342 8.04519 17.9353 7.84489 18.183 7.84489C18.4311 7.84535 18.6328 8.04659 18.6328 8.29466C18.6328 8.31598 18.6325 8.33719 18.6322 8.3584C18.6246 8.89638 18.526 12.5214 17.2412 14.4057C17.1574 14.5286 17.0183 14.6021 16.8696 14.6021Z" fill="#0754B8"/>
<path d="M18.183 7.84489C17.9353 7.84489 17.7342 8.04519 17.7332 8.29303C17.7332 8.29594 17.733 8.32111 17.7322 8.36609C17.6943 9.64748 16.6401 10.6781 15.3498 10.6781C14.0355 10.6781 12.9662 9.60891 12.9662 8.29466C12.9662 8.04624 12.7649 7.84489 12.5164 7.84489H12V14.602L16.8696 14.6021C17.0183 14.6021 17.1574 14.5286 17.2412 14.4057C18.526 12.5214 18.6246 8.89638 18.6322 8.3584C18.6325 8.33719 18.6328 8.31598 18.6328 8.29466C18.6328 8.04659 18.4311 7.84535 18.183 7.84489Z" fill="#0754B8"/>
<path d="M11.9999 6.31018C11.1986 6.31018 10.5467 6.96212 10.5467 7.76344C10.5467 8.56476 11.1986 9.21658 11.9999 9.21658C12.8012 9.21658 13.4532 8.56476 13.4532 7.76344C13.4532 6.96212 12.8012 6.31018 11.9999 6.31018Z" fill="#0754B8"/>
<path d="M11.9999 6.31018V9.21658C12.8012 9.21658 13.4532 8.56476 13.4532 7.76344C13.4532 6.96212 12.8012 6.31018 11.9999 6.31018Z" fill="#0754B8"/>
<path d="M5.81678 7.4317C5.01546 7.4317 4.36353 8.08364 4.36353 8.88496C4.36353 9.68628 5.01546 10.3382 5.81678 10.3382C6.6181 10.3382 7.26992 9.68628 7.26992 8.88496C7.26992 8.08364 6.6181 7.4317 5.81678 7.4317Z" fill="#0754B8"/>
<path d="M18.183 7.4317C17.3817 7.4317 16.7299 8.08364 16.7299 8.88496C16.7299 9.68616 17.3817 10.3381 18.183 10.3381C18.9843 10.3381 19.6363 9.68616 19.6363 8.88496C19.6363 8.08364 18.9843 7.4317 18.183 7.4317Z" fill="#0754B8"/>
</svg>
