<svg width="35" height="35" viewBox="0 0 35 35" fill="none" xmlns="http://www.w3.org/2000/svg">
<rect y="0.285645" width="34.2857" height="34.2857" rx="17.1429" fill="#007AFF" fill-opacity="0.15"/>
<path d="M27.566 14.5467C27.4722 14.2584 27.2953 14.0044 27.0574 13.8165C26.8195 13.6287 26.5313 13.5154 26.2291 13.4911L20.6979 13.0448L18.5623 7.88014C18.4468 7.59872 18.2502 7.358 17.9975 7.18859C17.7449 7.01917 17.4476 6.92871 17.1434 6.92871C16.8392 6.92871 16.5418 7.01917 16.2892 7.18859C16.0365 7.358 15.8399 7.59872 15.7244 7.88014L13.5907 13.0439L8.05664 13.4911C7.75399 13.5167 7.46563 13.631 7.22767 13.8198C6.98972 14.0085 6.81277 14.2633 6.71897 14.5522C6.62518 14.8411 6.61873 15.1512 6.70042 15.4438C6.78211 15.7363 6.94831 15.9982 7.1782 16.1967L11.3969 19.837L10.1116 25.2801C10.0398 25.5759 10.0574 25.8863 10.1622 26.172C10.2671 26.4576 10.4544 26.7057 10.7005 26.8847C10.9466 27.0638 11.2404 27.1656 11.5445 27.1774C11.8486 27.1891 12.1493 27.1102 12.4085 26.9508L17.1429 24.037L21.8801 26.9508C22.1394 27.1084 22.4395 27.1857 22.7426 27.1731C23.0458 27.1604 23.3384 27.0584 23.5837 26.8798C23.829 26.7011 24.0159 26.4539 24.121 26.1693C24.226 25.8847 24.2445 25.5753 24.1741 25.2801L22.8841 19.8361L27.1029 16.1958C27.3346 15.9976 27.5024 15.7351 27.5848 15.4415C27.6672 15.148 27.6607 14.8366 27.566 14.5467ZM26.1279 15.0595L21.5623 18.997C21.4581 19.0868 21.3807 19.2034 21.3384 19.3342C21.296 19.465 21.2905 19.6049 21.3223 19.7386L22.7173 25.6261C22.7209 25.6342 22.7212 25.6434 22.7183 25.6518C22.7153 25.6601 22.7092 25.667 22.7013 25.6711C22.6844 25.6842 22.6798 25.6814 22.6657 25.6711L17.5357 22.5164C17.4176 22.4438 17.2816 22.4053 17.1429 22.4053C17.0042 22.4053 16.8682 22.4438 16.7501 22.5164L11.6201 25.673C11.606 25.6814 11.6023 25.6842 11.5844 25.673C11.5765 25.6689 11.5705 25.662 11.5675 25.6536C11.5645 25.6453 11.5649 25.6361 11.5685 25.628L12.9635 19.7405C12.9953 19.6067 12.9897 19.4668 12.9474 19.3361C12.9051 19.2053 12.8276 19.0886 12.7235 18.9989L8.15789 15.0614C8.14664 15.052 8.13632 15.0436 8.1457 15.0145C8.15507 14.9855 8.16257 14.9892 8.17664 14.9873L14.1691 14.5036C14.3066 14.4918 14.4381 14.4423 14.5493 14.3606C14.6604 14.2789 14.7469 14.1681 14.7991 14.0405L17.1073 8.45202C17.1148 8.43608 17.1176 8.42858 17.1401 8.42858C17.1626 8.42858 17.1654 8.43608 17.1729 8.45202L19.4866 14.0405C19.5394 14.1682 19.6264 14.2788 19.7381 14.3602C19.8497 14.4416 19.9817 14.4906 20.1194 14.5017L26.1119 14.9855C26.126 14.9855 26.1344 14.9855 26.1429 15.0126C26.1513 15.0398 26.1429 15.0501 26.1279 15.0595Z" fill="#007AFF"/>
</svg>
