<svg width="19" height="19" viewBox="0 0 19 19" fill="none" xmlns="http://www.w3.org/2000/svg">
<path d="M17.5439 10.046C17.5474 9.92023 17.5474 9.79445 17.5439 9.66867L18.8471 8.04053C18.9154 7.95505 18.9627 7.85471 18.9852 7.74759C19.0076 7.64048 19.0046 7.52959 18.9763 7.42386C18.7623 6.62093 18.4428 5.84992 18.026 5.13101C17.9714 5.03695 17.8956 4.95694 17.8046 4.89735C17.7136 4.83776 17.61 4.80022 17.5019 4.78774L15.4301 4.55714C15.3439 4.4663 15.2565 4.37896 15.168 4.2951L14.9235 2.218C14.9109 2.10987 14.8732 2.00618 14.8135 1.91519C14.7537 1.8242 14.6735 1.74843 14.5793 1.69392C13.8604 1.27749 13.0894 0.958499 12.2865 0.745331C12.1807 0.717083 12.0698 0.714064 11.9627 0.736518C11.8556 0.758972 11.7553 0.806271 11.6698 0.874604L10.046 2.17083C9.92023 2.17083 9.79445 2.17083 9.66867 2.17083L8.04053 0.870236C7.95505 0.801904 7.85471 0.754605 7.74759 0.732151C7.64048 0.709697 7.52959 0.712715 7.42386 0.740963C6.62093 0.954986 5.84992 1.27455 5.13101 1.6913C5.03695 1.74591 4.95694 1.82173 4.89735 1.91271C4.83776 2.00369 4.80022 2.10733 4.78774 2.21538L4.55714 4.29074C4.4663 4.3775 4.37896 4.46485 4.2951 4.55278L2.218 4.79123C2.10987 4.80381 2.00618 4.84148 1.91519 4.90123C1.8242 4.96098 1.74843 5.04116 1.69392 5.13538C1.27758 5.85439 0.958312 6.62538 0.744457 7.42823C0.716329 7.53403 0.713452 7.64496 0.736058 7.75207C0.758664 7.85919 0.806121 7.95949 0.874604 8.0449L2.17083 9.66867C2.17083 9.79445 2.17083 9.92023 2.17083 10.046L0.870236 11.6742C0.801904 11.7596 0.754605 11.86 0.732151 11.9671C0.709697 12.0742 0.712715 12.1851 0.740963 12.2908C0.954986 13.0938 1.27455 13.8648 1.6913 14.5837C1.74591 14.6777 1.82173 14.7577 1.91271 14.8173C2.00369 14.8769 2.10733 14.9145 2.21538 14.9269L4.28724 15.1575C4.37401 15.2484 4.46135 15.3357 4.54928 15.4196L4.79123 17.4967C4.80381 17.6048 4.84148 17.7085 4.90123 17.7995C4.96098 17.8905 5.04116 17.9663 5.13538 18.0208C5.85439 18.4371 6.62538 18.7564 7.42823 18.9702C7.53403 18.9984 7.64496 19.0012 7.75207 18.9786C7.85919 18.956 7.95949 18.9086 8.0449 18.8401L9.66867 17.5439C9.79445 17.5474 9.92023 17.5474 10.046 17.5439L11.6742 18.8471C11.7596 18.9154 11.86 18.9627 11.9671 18.9852C12.0742 19.0076 12.1851 19.0046 12.2908 18.9763C13.0939 18.7627 13.8649 18.4431 14.5837 18.026C14.6777 17.9714 14.7577 17.8956 14.8173 17.8046C14.8769 17.7136 14.9145 17.61 14.9269 17.5019L15.1575 15.4301C15.2484 15.3439 15.3357 15.2565 15.4196 15.168L17.4967 14.9235C17.6048 14.9109 17.7085 14.8732 17.7995 14.8135C17.8905 14.7537 17.9663 14.6735 18.0208 14.5793C18.4371 13.8603 18.7564 13.0893 18.9702 12.2865C18.9984 12.1807 19.0012 12.0697 18.9786 11.9626C18.956 11.8555 18.9086 11.7552 18.8401 11.6698L17.5439 10.046ZM9.85734 13.3512C9.16632 13.3512 8.49082 13.1463 7.91625 12.7624C7.34169 12.3785 6.89387 11.8328 6.62943 11.1944C6.36499 10.556 6.2958 9.85347 6.43061 9.17572C6.56542 8.49798 6.89818 7.87543 7.3868 7.3868C7.87543 6.89818 8.49798 6.56542 9.17572 6.43061C9.85347 6.2958 10.556 6.36499 11.1944 6.62943C11.8328 6.89387 12.3785 7.34169 12.7624 7.91625C13.1463 8.49082 13.3512 9.16632 13.3512 9.85734C13.3512 10.784 12.9831 11.6727 12.3279 12.3279C11.6727 12.9831 10.784 13.3512 9.85734 13.3512Z" fill="#0754B8"/>
</svg>
