<svg width="20" height="19" viewBox="0 0 20 19" fill="none" xmlns="http://www.w3.org/2000/svg">
<path d="M17.644 10.046C17.6474 9.92023 17.6474 9.79445 17.644 9.66867L18.9472 8.04053C19.0155 7.95505 19.0628 7.85471 19.0853 7.74759C19.1077 7.64048 19.1047 7.52959 19.0764 7.42386C18.8624 6.62093 18.5429 5.84992 18.1261 5.13101C18.0715 5.03695 17.9957 4.95694 17.9047 4.89735C17.8137 4.83776 17.7101 4.80022 17.602 4.78774L15.5302 4.55714C15.444 4.4663 15.3566 4.37896 15.2681 4.2951L15.0236 2.218C15.011 2.10987 14.9733 2.00618 14.9136 1.91519C14.8538 1.8242 14.7736 1.74843 14.6794 1.69392C13.9605 1.27749 13.1895 0.958499 12.3866 0.745331C12.2808 0.717083 12.1699 0.714064 12.0628 0.736518C11.9557 0.758972 11.8554 0.806271 11.7699 0.874604L10.1461 2.17083C10.0203 2.17083 9.89455 2.17083 9.76877 2.17083L8.14063 0.870236C8.05514 0.801904 7.9548 0.754605 7.84769 0.732151C7.74058 0.709697 7.62969 0.712715 7.52396 0.740963C6.72103 0.954986 5.95002 1.27455 5.23111 1.6913C5.13705 1.74591 5.05704 1.82173 4.99745 1.91271C4.93785 2.00369 4.90032 2.10733 4.88784 2.21538L4.65724 4.29074C4.5664 4.3775 4.47905 4.46485 4.3952 4.55278L2.31809 4.79123C2.20997 4.80381 2.10628 4.84148 2.01529 4.90123C1.9243 4.96098 1.84853 5.04116 1.79401 5.13538C1.37767 5.85439 1.05841 6.62538 0.844555 7.42823C0.816426 7.53403 0.813549 7.64496 0.836156 7.75207C0.858762 7.85919 0.906219 7.95949 0.974701 8.0449L2.27093 9.66867C2.27093 9.79445 2.27093 9.92023 2.27093 10.046L0.970334 11.6742C0.902001 11.7596 0.854703 11.86 0.832249 11.9671C0.809795 12.0742 0.812813 12.1851 0.841061 12.2908C1.05508 13.0938 1.37465 13.8648 1.79139 14.5837C1.84601 14.6777 1.92182 14.7577 2.01281 14.8173C2.10379 14.8769 2.20743 14.9145 2.31547 14.9269L4.38734 15.1575C4.4741 15.2484 4.56145 15.3357 4.64938 15.4196L4.89133 17.4967C4.90391 17.6048 4.94158 17.7085 5.00133 17.7995C5.06108 17.8905 5.14126 17.9663 5.23548 18.0208C5.95448 18.4371 6.72547 18.7564 7.52833 18.9702C7.63413 18.9984 7.74505 19.0012 7.85217 18.9786C7.95928 18.956 8.05959 18.9086 8.145 18.8401L9.76877 17.5439C9.89455 17.5474 10.0203 17.5474 10.1461 17.5439L11.7743 18.8471C11.8597 18.9154 11.9601 18.9627 12.0672 18.9852C12.1743 19.0076 12.2852 19.0046 12.3909 18.9763C13.194 18.7627 13.965 18.4431 14.6838 18.026C14.7778 17.9714 14.8578 17.8956 14.9174 17.8046C14.977 17.7136 15.0146 17.61 15.027 17.5019L15.2576 15.4301C15.3485 15.3439 15.4358 15.2565 15.5197 15.168L17.5968 14.9235C17.7049 14.9109 17.8086 14.8732 17.8996 14.8135C17.9906 14.7537 18.0664 14.6735 18.1209 14.5793C18.5372 13.8603 18.8565 13.0893 19.0703 12.2865C19.0985 12.1807 19.1013 12.0697 19.0787 11.9626C19.0561 11.8555 19.0087 11.7552 18.9402 11.6698L17.644 10.046ZM9.95744 13.3512C9.26642 13.3512 8.59092 13.1463 8.01635 12.7624C7.44179 12.3785 6.99397 11.8328 6.72953 11.1944C6.46508 10.556 6.39589 9.85347 6.5307 9.17572C6.66552 8.49798 6.99828 7.87543 7.4869 7.38681C7.97553 6.89818 8.59808 6.56542 9.27582 6.43061C9.95357 6.2958 10.6561 6.36499 11.2945 6.62943C11.9329 6.89387 12.4786 7.34169 12.8625 7.91625C13.2464 8.49082 13.4513 9.16632 13.4513 9.85734C13.4513 10.784 13.0832 11.6727 12.428 12.3279C11.7728 12.9831 10.8841 13.3512 9.95744 13.3512Z" fill="#999999"/>
</svg>
