<svg width="35" height="35" viewBox="0 0 35 35" fill="none" xmlns="http://www.w3.org/2000/svg">
<rect width="34.2857" height="34.2857" rx="17.1429" fill="#007AFF" fill-opacity="0.15"/>
<path d="M25.3928 15.6432V24.6432C25.3928 25.041 25.2348 25.4225 24.9535 25.7038C24.6722 25.9851 24.2906 26.1432 23.8928 26.1432H10.3928C9.995 26.1432 9.61347 25.9851 9.33216 25.7038C9.05086 25.4225 8.89282 25.041 8.89282 24.6432V15.6432C8.89282 15.2453 9.05086 14.8638 9.33216 14.5825C9.61347 14.3012 9.995 14.1432 10.3928 14.1432H12.6428C12.8417 14.1432 13.0325 14.2222 13.1732 14.3628C13.3138 14.5035 13.3928 14.6943 13.3928 14.8932C13.3928 15.0921 13.3138 15.2828 13.1732 15.4235C13.0325 15.5642 12.8417 15.6432 12.6428 15.6432H10.3928V24.6432H23.8928V15.6432H21.6428C21.4439 15.6432 21.2531 15.5642 21.1125 15.4235C20.9718 15.2828 20.8928 15.0921 20.8928 14.8932C20.8928 14.6943 20.9718 14.5035 21.1125 14.3628C21.2531 14.2222 21.4439 14.1432 21.6428 14.1432H23.8928C24.2906 14.1432 24.6722 14.3012 24.9535 14.5825C25.2348 14.8638 25.3928 15.2453 25.3928 15.6432ZM13.9234 11.6738L16.3928 9.20348V17.8932C16.3928 18.0921 16.4718 18.2828 16.6125 18.4235C16.7531 18.5642 16.9439 18.6432 17.1428 18.6432C17.3417 18.6432 17.5325 18.5642 17.6732 18.4235C17.8138 18.2828 17.8928 18.0921 17.8928 17.8932V9.20348L20.3622 11.6738C20.5029 11.8145 20.6938 11.8936 20.8928 11.8936C21.0918 11.8936 21.2827 11.8145 21.4234 11.6738C21.5642 11.5331 21.6432 11.3422 21.6432 11.1432C21.6432 10.9441 21.5642 10.7533 21.4234 10.6125L17.6734 6.86254C17.6038 6.79281 17.5211 6.73749 17.43 6.69975C17.339 6.66201 17.2414 6.64258 17.1428 6.64258C17.0443 6.64258 16.9467 6.66201 16.8556 6.69975C16.7646 6.73749 16.6819 6.79281 16.6122 6.86254L12.8622 10.6125C12.7215 10.7533 12.6424 10.9441 12.6424 11.1432C12.6424 11.3422 12.7215 11.5331 12.8622 11.6738C13.0029 11.8145 13.1938 11.8936 13.3928 11.8936C13.5918 11.8936 13.7827 11.8145 13.9234 11.6738Z" fill="#007AFF"/>
</svg>
