<svg width="35" height="35" viewBox="0 0 35 35" fill="none" xmlns="http://www.w3.org/2000/svg">
<rect y="0.571289" width="34.2857" height="34.2857" rx="17.1429" fill="#007AFF" fill-opacity="0.15"/>
<path d="M17.1428 7.96436C15.2145 7.96436 13.3294 8.53618 11.726 9.60753C10.1226 10.6789 8.87296 12.2016 8.135 13.9832C7.39705 15.7648 7.20396 17.7252 7.58017 19.6165C7.95638 21.5078 8.88497 23.2451 10.2485 24.6086C11.6121 25.9722 13.3494 26.9008 15.2407 27.277C17.132 27.6532 19.0924 27.4601 20.874 26.7222C22.6556 25.9842 24.1783 24.7345 25.2497 23.1312C26.321 21.5278 26.8928 19.6427 26.8928 17.7144C26.8901 15.1293 25.862 12.651 24.0341 10.8231C22.2062 8.99519 19.7278 7.96709 17.1428 7.96436ZM20.8085 20.3197C21.3511 19.5593 21.6428 18.6485 21.6428 17.7144C21.6428 16.7802 21.3511 15.8694 20.8085 15.109L23.4803 12.4381C24.716 13.9186 25.3929 15.7859 25.3929 17.7144C25.3929 19.6428 24.716 21.5101 23.4803 22.9906L20.8085 20.3197ZM14.1428 17.7144C14.1428 17.121 14.3188 16.541 14.6484 16.0476C14.9781 15.5543 15.4466 15.1698 15.9948 14.9427C16.543 14.7157 17.1462 14.6562 17.7281 14.772C18.31 14.8878 18.8446 15.1735 19.2641 15.593C19.6837 16.0126 19.9694 16.5471 20.0852 17.1291C20.2009 17.711 20.1415 18.3142 19.9145 18.8624C19.6874 19.4106 19.3029 19.8791 18.8095 20.2088C18.3162 20.5384 17.7362 20.7144 17.1428 20.7144C16.3472 20.7144 15.5841 20.3983 15.0215 19.8357C14.4589 19.2731 14.1428 18.51 14.1428 17.7144ZM22.4191 11.3769L19.7481 14.0487C18.9878 13.5061 18.077 13.2144 17.1428 13.2144C16.2087 13.2144 15.2979 13.5061 14.5375 14.0487L11.8666 11.3769C13.3471 10.1411 15.2144 9.46426 17.1428 9.46426C19.0713 9.46426 20.9386 10.1411 22.4191 11.3769ZM10.8053 12.4381L13.4772 15.109C12.9346 15.8694 12.6429 16.7802 12.6429 17.7144C12.6429 18.6485 12.9346 19.5593 13.4772 20.3197L10.8053 22.9906C9.56961 21.5101 8.89273 19.6428 8.89273 17.7144C8.89273 15.7859 9.56961 13.9186 10.8053 12.4381ZM11.8666 24.0519L14.5375 21.38C15.2979 21.9226 16.2087 22.2143 17.1428 22.2143C18.077 22.2143 18.9878 21.9226 19.7481 21.38L22.4191 24.0519C20.9386 25.2876 19.0713 25.9644 17.1428 25.9644C15.2144 25.9644 13.3471 25.2876 11.8666 24.0519Z" fill="#007AFF"/>
</svg>
