<svg width="35" height="35" viewBox="0 0 35 35" fill="none" xmlns="http://www.w3.org/2000/svg">
<rect y="0.714355" width="34.2857" height="34.2857" rx="17.1429" fill="#007AFF" fill-opacity="0.15"/>
<path d="M20.8928 20.1073C20.8928 20.3062 20.8138 20.497 20.6732 20.6376C20.5325 20.7783 20.3417 20.8573 20.1428 20.8573H14.1428C13.9439 20.8573 13.7531 20.7783 13.6125 20.6376C13.4718 20.497 13.3928 20.3062 13.3928 20.1073C13.3928 19.9084 13.4718 19.7176 13.6125 19.577C13.7531 19.4363 13.9439 19.3573 14.1428 19.3573H20.1428C20.3417 19.3573 20.5325 19.4363 20.6732 19.577C20.8138 19.7176 20.8928 19.9084 20.8928 20.1073ZM20.1428 16.3573H14.1428C13.9439 16.3573 13.7531 16.4363 13.6125 16.577C13.4718 16.7176 13.3928 16.9084 13.3928 17.1073C13.3928 17.3062 13.4718 17.497 13.6125 17.6376C13.7531 17.7783 13.9439 17.8573 14.1428 17.8573H20.1428C20.3417 17.8573 20.5325 17.7783 20.6732 17.6376C20.8138 17.497 20.8928 17.3062 20.8928 17.1073C20.8928 16.9084 20.8138 16.7176 20.6732 16.577C20.5325 16.4363 20.3417 16.3573 20.1428 16.3573ZM25.3928 10.3573V26.1073C25.3928 26.5051 25.2348 26.8866 24.9535 27.1679C24.6722 27.4493 24.2906 27.6073 23.8928 27.6073H10.3928C9.995 27.6073 9.61347 27.4493 9.33216 27.1679C9.05086 26.8866 8.89282 26.5051 8.89282 26.1073V10.3573C8.89282 9.95946 9.05086 9.57793 9.33216 9.29663C9.61347 9.01532 9.995 8.85729 10.3928 8.85729H13.7922C14.2136 8.38547 14.7299 8.00796 15.3073 7.7495C15.8847 7.49103 16.5102 7.35742 17.1428 7.35742C17.7754 7.35742 18.4009 7.49103 18.9783 7.7495C19.5557 8.00796 20.072 8.38547 20.4934 8.85729H23.8928C24.2906 8.85729 24.6722 9.01532 24.9535 9.29663C25.2348 9.57793 25.3928 9.95946 25.3928 10.3573ZM14.1428 11.8573H20.1428C20.1428 11.0616 19.8268 10.2986 19.2641 9.73597C18.7015 9.17336 17.9385 8.85729 17.1428 8.85729C16.3472 8.85729 15.5841 9.17336 15.0215 9.73597C14.4589 10.2986 14.1428 11.0616 14.1428 11.8573ZM23.8928 10.3573H21.385C21.5556 10.839 21.6428 11.3463 21.6428 11.8573V12.6073C21.6428 12.8062 21.5638 12.997 21.4232 13.1376C21.2825 13.2783 21.0917 13.3573 20.8928 13.3573H13.3928C13.1939 13.3573 13.0031 13.2783 12.8625 13.1376C12.7218 12.997 12.6428 12.8062 12.6428 12.6073V11.8573C12.6428 11.3463 12.73 10.839 12.9006 10.3573H10.3928V26.1073H23.8928V10.3573Z" fill="#007AFF"/>
</svg>
