<svg width="35" height="35" viewBox="0 0 35 35" fill="none" xmlns="http://www.w3.org/2000/svg">
<rect y="0.143066" width="34.2857" height="34.2857" rx="17.1429" fill="#007AFF" fill-opacity="0.15"/>
<path d="M17.1428 7.53613C15.2145 7.53613 13.3294 8.10796 11.726 9.1793C10.1226 10.2506 8.87296 11.7734 8.135 13.555C7.39705 15.3365 7.20396 17.2969 7.58017 19.1883C7.95638 21.0796 8.88497 22.8169 10.2485 24.1804C11.6121 25.544 13.3494 26.4726 15.2407 26.8488C17.132 27.225 19.0924 27.0319 20.874 26.294C22.6556 25.556 24.1783 24.3063 25.2497 22.7029C26.321 21.0996 26.8928 19.2145 26.8928 17.2861C26.8901 14.7011 25.862 12.2227 24.0341 10.3949C22.2062 8.56697 19.7278 7.53886 17.1428 7.53613ZM17.1428 25.5361C15.5111 25.5361 13.9161 25.0523 12.5594 24.1458C11.2027 23.2392 10.1452 21.9508 9.52082 20.4433C8.8964 18.9358 8.73302 17.277 9.05135 15.6766C9.36968 14.0763 10.1554 12.6063 11.3092 11.4525C12.463 10.2987 13.933 9.51298 15.5333 9.19465C17.1337 8.87633 18.7925 9.0397 20.3 9.66413C21.8075 10.2885 23.0959 11.346 24.0025 12.7027C24.909 14.0594 25.3928 15.6544 25.3928 17.2861C25.3903 19.4734 24.5204 21.5704 22.9737 23.117C21.4271 24.6637 19.3301 25.5337 17.1428 25.5361ZM18.6428 21.7861C18.6428 21.985 18.5638 22.1758 18.4232 22.3165C18.2825 22.4571 18.0917 22.5361 17.8928 22.5361C17.495 22.5361 17.1135 22.3781 16.8322 22.0968C16.5509 21.8155 16.3928 21.434 16.3928 21.0361V17.2861C16.1939 17.2861 16.0031 17.2071 15.8625 17.0665C15.7218 16.9258 15.6428 16.735 15.6428 16.5361C15.6428 16.3372 15.7218 16.1465 15.8625 16.0058C16.0031 15.8652 16.1939 15.7861 16.3928 15.7861C16.7907 15.7861 17.1722 15.9442 17.4535 16.2255C17.7348 16.5068 17.8928 16.8883 17.8928 17.2861V21.0361C18.0917 21.0361 18.2825 21.1151 18.4232 21.2558C18.5638 21.3965 18.6428 21.5872 18.6428 21.7861ZM15.6428 13.1611C15.6428 12.9386 15.7088 12.7211 15.8324 12.5361C15.956 12.3511 16.1317 12.2069 16.3373 12.1218C16.5429 12.0366 16.7691 12.0143 16.9873 12.0577C17.2055 12.1012 17.406 12.2083 17.5633 12.3656C17.7207 12.523 17.8278 12.7234 17.8712 12.9417C17.9146 13.1599 17.8923 13.3861 17.8072 13.5917C17.722 13.7972 17.5778 13.9729 17.3928 14.0965C17.2078 14.2202 16.9903 14.2861 16.7678 14.2861C16.4695 14.2861 16.1833 14.1676 15.9723 13.9566C15.7614 13.7456 15.6428 13.4595 15.6428 13.1611Z" fill="#007AFF"/>
</svg>
